HIERARCHY
ROOT Hips
{
  OFFSET 5.84602e-005 68.8428 3.50346
  CHANNELS 6 Xposition Yposition Zposition Zrotation Xrotation Yrotation
  JOINT Spine
  {
    OFFSET 0 8.597 -4.6522
    CHANNELS 3 Zrotation Xrotation Yrotation
    JOINT Spine1
    {
      OFFSET 0 7.8454 0.4098
      CHANNELS 3 Zrotation Xrotation Yrotation
      JOINT Spine2
      {
        OFFSET 0 9.7078 -2.1609
        CHANNELS 3 Zrotation Xrotation Yrotation
        JOINT Neck
        {
          OFFSET 0 21.8761 -0.4549
          CHANNELS 3 Zrotation Xrotation Yrotation
          JOINT Head
          {
            OFFSET 0 12.3537 3.3602
            CHANNELS 3 Zrotation Xrotation Yrotation
            End Site
            {
              OFFSET 0.0001 18.9506 0.5657
            }
          }
        }
        JOINT LeftShoulder
        {
          OFFSET 2.2086 21.1115 7.2329
          CHANNELS 3 Zrotation Xrotation Yrotation
          JOINT LeftArm
          {
            OFFSET 13.1193 3.0282 -4.8998
            CHANNELS 3 Zrotation Xrotation Yrotation
            JOINT LeftForeArm
            {
              OFFSET 27.4081 -0.0973053 -0.2375
              CHANNELS 3 Zrotation Xrotation Yrotation
              JOINT LeftHand
              {
                OFFSET 22.8641 0.0662994 -0.1369
                CHANNELS 3 Zrotation Xrotation Yrotation
                JOINT LeftHandIndex1
                {
                  OFFSET 8.8614 0.775009 2.4612
                  CHANNELS 3 Zrotation Xrotation Yrotation
                  JOINT LeftHandIndex2
                  {
                    OFFSET 3.3146 -0.808304 0.5841
                    CHANNELS 3 Zrotation Xrotation Yrotation
                    JOINT LeftHandIndex3
                    {
                      OFFSET 2.2628 -0.552002 0.3989
                      CHANNELS 3 Zrotation Xrotation Yrotation
                      End Site
                      {
                        OFFSET 1.6102 -0.4807 0.2612
                      }
                    }
                  }
                }
                JOINT LeftHandMiddle1
                {
                  OFFSET 8.9937 0.895004 0.2143
                  CHANNELS 3 Zrotation Xrotation Yrotation
                  JOINT LeftHandMiddle2
                  {
                    OFFSET 4.0984 0.0113983 -0.0242
                    CHANNELS 3 Zrotation Xrotation Yrotation
                    JOINT LeftHandMiddle3
                    {
                      OFFSET 2.2716 0.00689697 -0.0138001
                      CHANNELS 3 Zrotation Xrotation Yrotation
                      End Site
                      {
                        OFFSET 2.0404 -0.1441 0.0027
                      }
                    }
                  }
                }
                JOINT LeftHandRing1
                {
                  OFFSET 8.5234 0.597198 -2.0164
                  CHANNELS 3 Zrotation Xrotation Yrotation
                  JOINT LeftHandRing2
                  {
                    OFFSET 3.7188 -0.188293 -0.2328
                    CHANNELS 3 Zrotation Xrotation Yrotation
                    JOINT LeftHandRing3
                    {
                      OFFSET 2.1191 -0.106598 -0.1332
                      CHANNELS 3 Zrotation Xrotation Yrotation
                      End Site
                      {
                        OFFSET 1.8737 -0.2304 -0.0886
                      }
                    }
                  }
                }
                JOINT LeftHandPinky1
                {
                  OFFSET 7.9094 -0.601089 -3.4825
                  CHANNELS 3 Zrotation Xrotation Yrotation
                  JOINT LeftHandPinky2
                  {
                    OFFSET 2.2874 -0.477005 -0.6314
                    CHANNELS 3 Zrotation Xrotation Yrotation
                    JOINT LeftHandPinky3
                    {
                      OFFSET 1.6774 -0.349396 -0.4633
                      CHANNELS 3 Zrotation Xrotation Yrotation
                      End Site
                      {
                        OFFSET 1.4888 -0.4091 -0.3416
                      }
                    }
                  }
                }
                JOINT LeftHandThumb1
                {
                  OFFSET 1.833 -1.3875 1.3896
                  CHANNELS 3 Zrotation Xrotation Yrotation
                  JOINT LeftHandThumb2
                  {
                    OFFSET 3.4129 -1.121 2.5732
                    CHANNELS 3 Zrotation Xrotation Yrotation
                    JOINT LeftHandThumb3
                    {
                      OFFSET 2.2474 -0.804199 1.6192
                      CHANNELS 3 Zrotation Xrotation Yrotation
                      End Site
                      {
                        OFFSET 1.6527 -0.5689 1.1317
                      }
                    }
                  }
                }
              }
            }
          }
        }
        JOINT RightShoulder
        {
          OFFSET -2.2086 21.1115 7.2329
          CHANNELS 3 Zrotation Xrotation Yrotation
          JOINT RightArm
          {
            OFFSET -13.1216 3.0287 -4.9007
            CHANNELS 3 Zrotation Xrotation Yrotation
            JOINT RightForeArm
            {
              OFFSET -27.4081 -0.0973053 -0.2375
              CHANNELS 3 Zrotation Xrotation Yrotation
              JOINT RightHand
              {
                OFFSET -22.8641 0.0664063 -0.1369
                CHANNELS 3 Zrotation Xrotation Yrotation
                JOINT RightHandIndex1
                {
                  OFFSET -8.8614 0.774994 2.4612
                  CHANNELS 3 Zrotation Xrotation Yrotation
                  JOINT RightHandIndex2
                  {
                    OFFSET -3.3146 -0.808304 0.5841
                    CHANNELS 3 Zrotation Xrotation Yrotation
                    JOINT RightHandIndex3
                    {
                      OFFSET -2.2628 -0.552002 0.3989
                      CHANNELS 3 Zrotation Xrotation Yrotation
                      End Site
                      {
                        OFFSET -1.6102 -0.4807 0.2612
                      }
                    }
                  }
                }
                JOINT RightHandMiddle1
                {
                  OFFSET -8.9937 0.894989 0.2143
                  CHANNELS 3 Zrotation Xrotation Yrotation
                  JOINT RightHandMiddle2
                  {
                    OFFSET -4.0984 0.0113983 -0.0242
                    CHANNELS 3 Zrotation Xrotation Yrotation
                    JOINT RightHandMiddle3
                    {
                      OFFSET -2.2716 0.00691223 -0.0138001
                      CHANNELS 3 Zrotation Xrotation Yrotation
                      End Site
                      {
                        OFFSET -2.0404 -0.1441 0.0027
                      }
                    }
                  }
                }
                JOINT RightHandRing1
                {
                  OFFSET -8.5234 0.597198 -2.0164
                  CHANNELS 3 Zrotation Xrotation Yrotation
                  JOINT RightHandRing2
                  {
                    OFFSET -3.7188 -0.188309 -0.2328
                    CHANNELS 3 Zrotation Xrotation Yrotation
                    JOINT RightHandRing3
                    {
                      OFFSET -2.1191 -0.106598 -0.1332
                      CHANNELS 3 Zrotation Xrotation Yrotation
                      End Site
                      {
                        OFFSET -1.8737 -0.2304 -0.0886
                      }
                    }
                  }
                }
                JOINT RightHandPinky1
                {
                  OFFSET -7.9094 -0.601105 -3.4825
                  CHANNELS 3 Zrotation Xrotation Yrotation
                  JOINT RightHandPinky2
                  {
                    OFFSET -2.2874 -0.477005 -0.6314
                    CHANNELS 3 Zrotation Xrotation Yrotation
                    JOINT RightHandPinky3
                    {
                      OFFSET -1.6774 -0.349396 -0.4633
                      CHANNELS 3 Zrotation Xrotation Yrotation
                      End Site
                      {
                        OFFSET -1.4888 -0.4091 -0.3416
                      }
                    }
                  }
                }
                JOINT RightHandThumb1
                {
                  OFFSET -1.833 -1.38751 1.3896
                  CHANNELS 3 Zrotation Xrotation Yrotation
                  JOINT RightHandThumb2
                  {
                    OFFSET -3.41299 -1.12099 2.5732
                    CHANNELS 3 Zrotation Xrotation Yrotation
                    JOINT RightHandThumb3
                    {
                      OFFSET -2.24741 -0.804108 1.6192
                      CHANNELS 3 Zrotation Xrotation Yrotation
                      End Site
                      {
                        OFFSET -1.6527 -0.5689 1.1317
                      }
                    }
                  }
                }
              }
            }
          }
        }
      }
    }
  }
  JOINT RightUpLeg
  {
    OFFSET -9.1966 3.8861 -0.7581
    CHANNELS 3 Zrotation Xrotation Yrotation
    JOINT RightLeg
    {
      OFFSET -0.7359 -41.0265 0
      CHANNELS 3 Zrotation Xrotation Yrotation
      JOINT RightFoot
      {
        OFFSET 0 -40.2855 0
        CHANNELS 3 Zrotation Xrotation Yrotation
        JOINT RightToeBase
        {
          OFFSET 0 -5.6122 11.7359
          CHANNELS 3 Zrotation Xrotation Yrotation
          End Site
          {
            OFFSET 0 0 7.8731
          }
        }
      }
    }
  }
  JOINT LeftUpLeg
  {
    OFFSET 9.1965 3.8864 -0.7581
    CHANNELS 3 Zrotation Xrotation Yrotation
    JOINT LeftLeg
    {
      OFFSET 0.7359 -41.0268 0
      CHANNELS 3 Zrotation Xrotation Yrotation
      JOINT LeftFoot
      {
        OFFSET 0 -40.2855 0
        CHANNELS 3 Zrotation Xrotation Yrotation
        JOINT LeftToeBase
        {
          OFFSET 0 -5.6122 11.7359
          CHANNELS 3 Zrotation Xrotation Yrotation
          End Site
          {
            OFFSET 0 0 7.8731
          }
        }
      }
    }
  }
}
MOTION
Frames:	4
Frame Time:	0.0333333
5.84602e-005 68.8428 3.50346 0 0 -0 0 0 -0 0 0 -0 0 0 -0 0 0 -0 0 0 -0 0 0 -0 0 0 -0 0 0 -0 0 0 -0 0 0 -0 0 0 -0 0 0 -0 0 0 -0 -0.0146107 -8.87603e-005 -2.63497e-007 2.99804e-018 -2.42657e-020 -1.42182e-022 0 0 -0 -0.0187562 -0.001176 5.858e-005 5.06224e-018 3.88251e-019 1.21329e-020 0 0 -0 -0.012269 -0.00324817 0.000675346 -1.74678e-018 3.88251e-019 -0 0 0 -0 0 0 -0 0 0 -0 0 0 -0 0 0 -0 0 0 -0 0 0 -0 0 0 -0 0 0 -0 0 0 -0 0 0 -0 0.0149955 -9.10982e-005 2.64101e-007 -9.69331e-018 1.21329e-020 -4.7394e-023 0 0 -0 0.0189956 -0.00119102 -5.96516e-005 -5.41541e-019 0 2.42657e-020 0 0 -0 0.0122698 -0.00324857 -0.000673756 -2.00796e-019 0 -1.94126e-019 0 0 -0 0 0 -0 0 0 -0 3.39842 1.33031 -0.0637918 -5.65207e-008 0.834868 -0.000436188 -3.39935 -2.16518 -0.0642563 -8.89002e-024 -1.18485e-023 -1.48106e-024 -3.39844 1.35642 0.0640283 -3.18788e-007 0.782166 -0.000588827 3.39931 -2.13858 0.0634662 1.1399e-023 0 -0 
-7.08709 4.52256 -13.8297 -70.9173 14.8336 -55.4925 6.27794 4.81836 5.91637 12.0942 10.2326 11.3339 12.0942 10.2326 11.3339 -26.5855 11.4013 3.90958 26.8856 -16.7323 -2.6949 43.6835 -15.9859 29.218 -46.1307 -22.1008 -40.1988 16.1044 -38.4118 -121.137 34.4527 -0.115852 15.2921 -3.77379e-008 6.30215e-008 3.17913e-008 5.03172e-008 -8.40287e-008 -4.23884e-008 -3.77379e-008 6.30215e-008 3.17913e-008 -3.77379e-008 6.30215e-008 3.17913e-008 -0.01462 -8.82587e-005 1.58325e-006 -3.77379e-008 6.30175e-008 3.17994e-008 -3.77379e-008 6.30215e-008 3.17913e-008 -0.0187769 -0.00117719 5.86473e-005 -3.77376e-008 6.30163e-008 3.1802e-008 -3.77379e-008 6.30215e-008 3.17913e-008 -0.0122921 -0.00325448 0.000681395 -3.77367e-008 6.30184e-008 3.17991e-008 -3.77379e-008 6.30215e-008 3.17913e-008 5.03172e-008 -8.40287e-008 -4.23884e-008 -3.77379e-008 6.30215e-008 3.17913e-008 5.92834 -7.54604 -11.2959 -8.73779 45.8198 29.0978 9.53643 -11.1042 29.0656 -37.1412 -0.0670046 9.9898 -6.19197e-007 -4.59261e-007 2.61387e-008 -1.76556e-031 3.18055e-015 3.18055e-015 6.19197e-007 4.59261e-007 -2.61387e-008 -6.19197e-007 -4.59261e-007 2.61387e-008 0.0149495 -9.10238e-005 -2.01112e-006 -3.97569e-015 6.36111e-015 6.36111e-015 -6.19197e-007 -4.59261e-007 2.61387e-008 0.0190013 -0.001192 -5.90773e-005 2.38542e-015 -6.36111e-015 -3.18055e-015 -6.19197e-007 -4.59261e-007 2.61387e-008 0.0122173 -0.00323218 -0.00067546 6.1764e-007 4.59673e-007 -2.61192e-008 -6.19197e-007 -4.59261e-007 2.61387e-008 -1.76556e-031 3.18055e-015 3.18055e-015 6.19197e-007 4.59261e-007 -2.61387e-008 -37.508 -50.0158 -85.7429 -174.245 73.4528 171.953 3.74155 19.2734 -4.17318 2.9925e-006 3.79545e-007 -1.87946e-007 17.868 -40.2502 56.7402 12.5186 56.1429 -11.9044 -4.84237 17.5954 1.87986 -1.59028e-015 1.27222e-014 -0 
-7.08709 4.52256 -13.8297 -70.9173 14.8336 -55.4925 6.27794 4.81836 5.91637 12.0942 10.2326 11.3339 12.0942 10.2326 11.3339 -26.5855 11.4013 3.90958 26.8186 -16.5478 -2.99111 43.6835 -15.9859 29.218 -46.1307 -22.1008 -40.1988 16.1044 -38.4118 -121.137 34.4527 -0.115852 15.2921 -3.77379e-008 6.30215e-008 3.17913e-008 5.03172e-008 -8.40287e-008 -4.23884e-008 -3.77379e-008 6.30215e-008 3.17913e-008 -3.77379e-008 6.30215e-008 3.17913e-008 -0.01462 -8.82587e-005 1.58325e-006 -3.77379e-008 6.30175e-008 3.17994e-008 -3.77379e-008 6.30215e-008 3.17913e-008 -0.0187769 -0.00117719 5.86473e-005 -3.77376e-008 6.30163e-008 3.1802e-008 -3.77379e-008 6.30215e-008 3.17913e-008 -0.0122921 -0.00325448 0.000681395 -3.77367e-008 6.30184e-008 3.17991e-008 -3.77379e-008 6.30215e-008 3.17913e-008 5.03172e-008 -8.40287e-008 -4.23884e-008 -3.77379e-008 6.30215e-008 3.17913e-008 5.92834 -7.54604 -11.2959 -8.5218 45.6121 28.7288 9.70434 -10.9825 29.7484 -36.8403 0.357905 10.0442 -3.18055e-015 0 -3.18055e-015 -4.77083e-015 0 -0 -8.74653e-015 3.18055e-015 -3.18055e-015 -3.18055e-015 0 -3.18055e-015 0.0150102 -9.26359e-005 -4.16523e-007 -7.95139e-016 3.18055e-015 9.54166e-015 -3.18055e-015 0 -3.18055e-015 0.0189861 -0.00119188 -6.12986e-005 -7.15625e-015 3.18055e-015 -3.18055e-015 -3.18055e-015 0 -3.18055e-015 0.0122799 -0.00325163 -0.000678718 -1.59028e-015 6.36111e-015 6.36111e-015 -3.18055e-015 0 -3.18055e-015 -4.77083e-015 0 -0 -8.74653e-015 3.18055e-015 -3.18055e-015 -37.508 -50.0158 -85.7429 -174.245 73.4529 171.953 3.74155 19.2734 -4.17319 1.04579e-006 -8.18275e-007 -9.70784e-006 17.868 -40.2502 56.7402 12.5186 56.1429 -11.9044 -4.84237 17.5954 1.87986 -1.59028e-015 1.27222e-014 -0 
-7.08709 4.52256 -13.8297 -70.9173 14.8336 -55.4925 6.27794 4.81836 5.91637 12.0942 10.2326 11.3339 12.0942 10.2326 11.3339 -26.5855 11.4013 3.90958 26.7526 -16.3628 -3.28705 43.6835 -15.9859 29.218 -46.1307 -22.1008 -40.1988 16.1044 -38.4118 -121.137 34.4527 -0.115852 15.2921 -3.77379e-008 6.30215e-008 3.17913e-008 5.03172e-008 -8.40287e-008 -4.23884e-008 -3.77379e-008 6.30215e-008 3.17913e-008 -3.77379e-008 6.30215e-008 3.17913e-008 -0.01462 -8.82587e-005 1.58325e-006 -3.77379e-008 6.30175e-008 3.17994e-008 -3.77379e-008 6.30215e-008 3.17913e-008 -0.0187769 -0.00117719 5.86473e-005 -3.77376e-008 6.30163e-008 3.1802e-008 -3.77379e-008 6.30215e-008 3.17913e-008 -0.0122921 -0.00325448 0.000681395 -3.77367e-008 6.30184e-008 3.17991e-008 -3.77379e-008 6.30215e-008 3.17913e-008 5.03172e-008 -8.40287e-008 -4.23884e-008 -3.77379e-008 6.30215e-008 3.17913e-008 5.92834 -7.54604 -11.2959 -8.30837 45.4034 28.362 9.87111 -10.8585 30.4321 -36.5394 0.783711 10.0965 3.42019e-007 4.48111e-007 -1.59396e-006 5.33422e-007 4.82124e-007 -1.07742e-007 3.23575e-006 1.08147e-006 -3.54068e-007 3.42019e-007 4.48111e-007 -1.59396e-006 0.0149798 -9.30037e-005 7.7895e-007 3.53008e-006 -3.04799e-008 -9.09919e-007 3.42019e-007 4.48111e-007 -1.59396e-006 0.0189971 -0.00119004 -5.92215e-005 3.53012e-006 -3.05208e-008 -9.09952e-007 3.42019e-007 4.48111e-007 -1.59396e-006 0.0122857 -0.0032518 -0.000677257 3.53003e-006 -3.04689e-008 -9.10024e-007 3.42019e-007 4.48111e-007 -1.59396e-006 5.33422e-007 4.82124e-007 -1.07742e-007 3.23575e-006 1.08147e-006 -3.54068e-007 -37.508 -50.0158 -85.7429 -174.245 73.4529 171.953 3.74155 19.2734 -4.17319 1.04579e-006 -8.18275e-007 -9.70784e-006 17.868 -40.2502 56.7402 12.5186 56.1429 -11.9044 -4.84237 17.5954 1.87986 -1.59028e-015 1.27222e-014 -0 
